#!OML:ASF E:\acrobat2\Project_11_07_03\Capture day 1\Session 1\Acrobat.ASF
:FULLY-SPECIFIED
:DEGREES
543
root 12.3129 17.589 6.30657 18.0615 -20.1515 -194.072
lowerback 6.23041 1.7404 0.596754
upperback 9.42664 2.39977 0.903362
thorax 6.32746 1.32158 0.608308
lowerneck -0.509691 -5.03999 -4.35775
upperneck 23.5833 -6.45454 1.84481
head 7.52602 -2.59838 1.0052
rclavicle 3.49861e-014 -1.74931e-014
rhumerus -28.4086 -1.65342 -75.1415
rradius 9.16346
rwrist 36.571
rhand -6.63129 -38.9249
rfingers 7.12502
rthumb 19.2254 -67.9946
lclavicle 3.49861e-014 -1.74931e-014
lhumerus -4.37731 -5.19256 74.0111
lradius 26.0643
lwrist 0.0570288
lhand -20.6648 -21.3458
lfingers 7.12502
lthumb 5.69796 8.55763
rfemur -10.48 0.989544 10.0973
rtibia 4.36499
rfoot 16.5991 -18.8222
rtoes 28.4054
lfemur -16.131 1.32586 -29.9106
ltibia 6.92907
lfoot 21.2496 4.38379
ltoes 18.2378
544
root 12.385 17.1283 6.25853 20.4755 -17.2317 -194.794
lowerback 5.791 1.82065 0.533915
upperback 9.10279 2.5271 0.743058
thorax 6.22866 1.38474 0.482829
lowerneck -0.482007 -4.64454 -4.45313
upperneck 23.6326 -6.0651 2.79162
head 7.55385 -2.34922 1.35912
rclavicle 6.36111e-014 -4.92986e-014
rhumerus -29.4649 -1.18245 -74.3065
rradius 9.67677
rwrist 35.9301
rhand -8.24305 -38.5758
rfingers 7.12502
rthumb 17.675 -67.7924
lclavicle 6.36111e-014 -4.92986e-014
lhumerus -3.4713 -6.31327 73.6484
lradius 25.7061
lwrist -0.585262
lhand -20.3789 -20.417
lfingers 7.12502
lthumb 5.974 9.4788
rfemur -10.0699 0.86453 10.1341
rtibia 3.85172
rfoot 14.3411 -20.7047
rtoes 32.1909
lfemur -15.7174 1.88343 -30.0791
ltibia 6.92087
lfoot 21.0367 4.77198
ltoes 18.9006
545
root 12.4612 16.6563 6.21742 22.8669 -14.4049 -195.243
lowerback 5.30698 1.89615 0.357413
upperback 8.77793 2.65034 0.49966
thorax 6.15476 1.44209 0.337354
lowerneck -0.483762 -4.26872 -4.52515
upperneck 23.5972 -5.70553 3.73135
head 7.5539 -2.11614 1.70496
rclavicle 7.15625e-015 -1.74931e-014
rhumerus -30.5804 -0.747966 -73.6763
rradius 10.173
rwrist 35.0094
rhand -9.53564 -38.1311
rfingers 7.12502
rthumb 16.4308 -67.4553
lclavicle 7.15625e-015 -1.74931e-014
lhumerus -2.68961 -7.46085 73.2312
lradius 25.3248
lwrist -0.893104
lhand -19.837 -19.2075
lfingers 7.12502
lthumb 6.49715 10.6729
rfemur -9.68856 0.693949 10.1331
rtibia 3.35709
rfoot 11.9987 -22.366
rtoes 35.1327
lfemur -15.3014 2.29208 -30.21
ltibia 6.82425
lfoot 20.5898 5.11571
ltoes 19.1734
546
root 12.54 16.1735 6.18368 25.252 -11.6708 -195.495
lowerback 4.8127 1.96722 0.128317
upperback 8.45269 2.771 0.193649
thorax 6.08896 1.49772 0.158129
lowerneck -0.68274 -3.94048 -4.13925
upperneck 23.8154 -5.31853 3.98252
head 7.63746 -1.87873 1.74719
rclavicle -1.27222e-014 1.74931e-014
rhumerus -31.7661 0.8577 -74.0243
rradius 10.6071
rwrist 32.698
rhand -10.7024 -37.9297
rfingers 7.12502
rthumb 15.3072 -67.3432
lclavicle -1.27222e-014 1.74931e-014
lhumerus -2.07071 -8.77737 72.746
lradius 24.9498
lwrist -0.887907
lhand -18.9713 -17.817
lfingers 7.12502
lthumb 7.33283 12.0359
rfemur -9.29604 0.505043 10.1564
rtibia 2.81038
rfoot 9.84221 -23.7846
rtoes 36.8054
lfemur -14.8683 2.54248 -30.252
ltibia 6.64501
lfoot 19.944 5.37261
ltoes 18.881
547
root 12.6202 15.6803 6.15688 27.6385 -9.02338 -195.62
lowerback 4.35181 2.04137 -0.0925156
upperback 8.11897 2.89791 -0.143479
thorax 5.99926 1.55849 -0.0579346
lowerneck -0.792495 -3.6221 -3.91228
upperneck 23.8088 -4.98256 4.48984
head 7.64353 -1.66571 1.89762
rclavicle 2.06736e-014 -1.90833e-014
rhumerus -33.0815 1.70813 -74.1778
rradius 10.9903
rwrist 31.4629
rhand -11.7554 -37.7127
rfingers 7.12502
rthumb 14.2927 -67.2008
lclavicle 2.06736e-014 -1.90833e-014
lhumerus -1.64682 -10.3571 72.2138
lradius 24.5767
lwrist -0.719837
lhand -17.8295 -16.361
lfingers 7.12502
lthumb 8.43488 13.4505
rfemur -8.87708 0.333855 10.266
rtibia 2.20433
rfoot 8.08214 -25.0145
rtoes 37.3776
lfemur -14.4168 2.64142 -30.1461
ltibia 6.40612
lfoot 19.154 5.56962
ltoes 18.0908
548
root 12.7009 15.1777 6.13608 30.0153 -6.45744 -195.679
lowerback 3.96174 2.1139 -0.269732
upperback 7.78078 3.02222 -0.47961
thorax 5.86885 1.62091 -0.298897
lowerneck -0.808533 -3.29999 -3.89973
upperneck 23.5677 -4.68028 5.29466
head 7.56688 -1.47178 2.17937
rclavicle -1.90833e-014 9.54166e-015
rhumerus -34.4818 1.93366 -74.1273
rradius 11.3081
rwrist 31.1763
rhand -12.6477 -37.4533
rfingers 7.12502
rthumb 13.4328 -67.0002
lclavicle -1.90833e-014 9.54166e-015
lhumerus -1.44422 -12.1572 71.6691
lradius 24.1854
lwrist -0.656248
lhand -16.5663 -14.9513
lfingers 7.12502
lthumb 9.65383 14.8075
rfemur -8.409 0.227451 10.5105
rtibia 1.5426
rfoot 6.8108 -26.1308
rtoes 37.284
lfemur -13.9395 2.58679 -29.8418
ltibia 6.12823
lfoot 18.2453 5.79194
ltoes 16.933
549
root 12.7818 14.6662 6.12028 32.3711 -3.98736 -195.667
lowerback 3.64147 2.17754 -0.434474
upperback 7.45187 3.13365 -0.810345
thorax 5.71104 1.67812 -0.542954
lowerneck -0.798949 -2.96328 -4.03435
upperneck 23.194 -4.37795 6.28188
head 7.44546 -1.28139 2.54422
rclavicle 3.65764e-014 -1.59028e-015
rhumerus -35.9119 1.72277 -73.9181
rradius 11.551
rwrist 31.6257
rhand -13.3711 -37.1392
rfingers 7.12502
rthumb 12.7355 -66.7308
lclavicle 3.65764e-014 -1.59028e-015
lhumerus -1.45792 -14.0531 71.1411
lradius 23.7446
lwrist -0.947728
lhand -15.3662 -13.6794
lfingers 7.12502
lthumb 10.8115 16.0224
rfemur -7.88598 0.24487 10.8586
rtibia 0.853148
rfoot 5.80896 -27.1619
rtoes 37.0104
lfemur -13.4395 2.38109 -29.369
ltibia 5.83417
lfoot 17.2355 6.10388
ltoes 15.4936
550
root 12.863 14.1458 6.10882 34.7225 -1.65043 -195.534
lowerback 3.36256 2.2255 -0.675228
upperback 7.13832 3.22475 -1.15113
thorax 5.54428 1.72243 -0.755948
lowerneck -0.828516 -2.61346 -4.27915
upperneck 22.7901 -4.0693 7.39522
head 7.32078 -1.08771 2.96822
rclavicle -1.74931e-014 -2.8625e-014
rhumerus -37.3318 1.2719 -73.6297
rradius 11.7201
rwrist 32.5514
rhand -13.8913 -36.7686
rfingers 7.12502
rthumb 12.2339 -66.3908
lclavicle -1.74931e-014 -2.8625e-014
lhumerus -1.66969 -15.8955 70.6452
lradius 23.2424
lwrist -1.70526
lhand -14.3562 -12.5649
lfingers 7.12502
lthumb 11.7856 17.0835
rfemur -7.34241 0.369921 11.2216
rtibia 0.239104
rfoot 4.57075 -28.1032
rtoes 37.9186
lfemur -12.9537 2.05609 -28.8268
ltibia 5.5511
lfoot 16.1789 6.59686
ltoes 14.182
551
root 12.9444 13.6167 6.10136 37.0945 0.543828 -195.27
lowerback 3.09854 2.27521 -0.997433
upperback 6.84395 3.31976 -1.49585
thorax 5.38679 1.7659 -0.927071
lowerneck -1.04505 -2.27496 -4.61288
upperneck 22.541 -3.7896 8.61001
head 7.28027 -0.895031 3.44156
rclavicle 6.36111e-015 2.54444e-014
rhumerus -38.7521 0.679991 -73.2845
rradius 11.8403
rwrist 33.7262
rhand -14.2 -36.326
rfingers 7.12502
rthumb 11.9363 -65.9657
lclavicle 6.36111e-015 2.54444e-014
lhumerus -2.03778 -17.5835 70.2454
lradius 22.6872
lwrist -2.88819
lhand -13.5537 -11.5566
lfingers 7.12502
lthumb 12.5594 18.0459
rfemur -6.81209 0.548619 11.5705
rtibia -0.328218
rfoot 3.41309 -28.8962
rtoes 39.1595
lfemur -12.514 1.62402 -28.2567
ltibia 5.29514
lfoot 15.0774 7.22538
ltoes 13.0079
552
root 13.0256 13.0794 6.09715 39.5019 2.62683 -194.907
lowerback 2.83741 2.31845 -1.36329
upperback 6.56749 3.40708 -1.83225
thorax 5.24478 1.80421 -1.06453
lowerneck -1.24207 -1.90932 -4.78342
upperneck 22.2318 -3.45569 9.70663
head 7.20287 -0.675433 3.85054
rclavicle 2.38542e-014 -3.65764e-014
rhumerus -40.1787 0.166924 -73.0128
rradius 11.9438
rwrist 34.8658
rhand -14.3571 -35.8422
rfingers 7.12502
rthumb 11.7847 -65.4906
lclavicle 2.38542e-014 -3.65764e-014
lhumerus -2.55253 -19.0155 69.9477
lradius 22.1156
lwrist -4.27642
lhand -12.8674 -10.5693
lfingers 7.12502
lthumb 13.2211 18.9915
rfemur -6.33267 0.676701 11.9522
rtibia -0.789988
rfoot 2.50251 -29.4871
rtoes 40.4148
lfemur -12.1392 1.10621 -27.6295
ltibia 5.07611
lfoot 13.9372 7.92276
ltoes 11.9887
553
root 13.1061 12.5342 6.09493 41.9496 4.6386 -194.477
lowerback 2.59276 2.36166 -1.7073
upperback 6.30004 3.49368 -2.15116
thorax 5.10393 1.84365 -1.19613
lowerneck -1.33378 -1.54129 -4.86962
upperneck 21.781 -3.10319 10.7572
head 7.05256 -0.451628 4.2267
rclavicle 4.6118e-014 9.54166e-015
rhumerus -41.6468 -0.138131 -72.9248
rradius 12.0636
rwrist 35.7197
rhand -14.4141 -35.3688
rfingers 7.12502
rthumb 11.7298 -65.0203
lclavicle 4.6118e-014 9.54166e-015
lhumerus -3.20218 -20.2496 69.7458
lradius 21.5865
lwrist -5.53562
lhand -12.141 -9.51213
lfingers 7.12502
lthumb 13.9211 20.0019
rfemur -5.92732 0.642849 12.4188
rtibia -1.10982
rfoot 1.99995 -29.8405
rtoes 41.4419
lfemur -11.844 0.560456 -26.9077
ltibia 4.90314
lfoot 12.8048 8.62277
ltoes 11.1462
554
root 13.1852 11.9811 6.09356 44.4291 6.59108 -193.991
lowerback 2.38624 2.41223 -1.99818
upperback 6.04608 3.58869 -2.44923
thorax 4.9582 1.89036 -1.33669
lowerneck -1.28524 -1.18416 -4.82966
upperneck 21.1218 -2.73253 11.6806
head 6.80241 -0.234391 4.53055
rclavicle 7.95139e-015 -4.13472e-014
rhumerus -43.1592 -0.195459 -73.0833
rradius 12.2286
rwrist 36.1319
rhand -14.4508 -34.9571
rfingers 7.12502
rthumb 11.6944 -64.6107
lclavicle 7.95139e-015 -4.13472e-014
lhumerus -3.96471 -21.3956 69.6256
lradius 21.1438
lwrist -6.37944
lhand -11.2546 -8.33613
lfingers 7.12502
lthumb 14.7752 21.1172
rfemur -5.59406 0.384015 12.9816
rtibia -1.28389
rfoot 1.9697 -29.9788
rtoes 41.9964
lfemur -11.6185 0.0233347 -26.0859
ltibia 4.76794
lfoot 11.7372 9.31852
ltoes 10.5031
555
root 13.2621 11.4203 6.09244 46.9275 8.48527 -193.458
lowerback 2.2361 2.47044 -2.21971
upperback 5.80979 3.69152 -2.72628
thorax 4.80254 1.94475 -1.49598
lowerneck -1.09928 -0.866667 -4.73028
upperneck 20.2392 -2.37581 12.4879
head 6.45536 -0.0465929 4.77298
rclavicle -7.95139e-015 -2.14687e-014
rhumerus -44.6992 -0.0572759 -73.4872
rradius 12.4584
rwrist 36.0944
rhand -14.512 -34.65
rfingers 7.12502
rthumb 11.6354 -64.3069
lclavicle -7.95139e-015 -2.14687e-014
lhumerus -4.83708 -22.5798 69.5638
lradius 20.8168
lwrist -6.64634
lhand -10.1899 -7.06971
lfingers 7.12502
lthumb 15.8008 22.3054
rfemur -5.31343 -0.104341 13.6406
rtibia -1.33901
rfoot 2.3652 -29.9443
rtoes 42.0429
lfemur -11.4391 -0.490511 -25.1641
ltibia 4.65128
lfoot 10.7019 9.97625
ltoes 10.2191
556
root 13.3366 10.8509 6.0914 49.447 10.29 -192.869
lowerback 2.14449 2.53372 -2.39871
upperback 5.59518 3.79957 -2.99067
thorax 4.63904 2.00458 -1.66803
lowerneck -0.869326 -0.620149 -4.68641
upperneck 19.2256 -2.08118 13.2333
head 6.06627 0.0904326 4.9932
rclavicle -7.4743e-014 5.56597e-014
rhumerus -46.2224 0.0846689 -74.0113
rradius 12.7375
rwrist 35.8037
rhand -14.5894 -34.4388
rfingers 7.12502
rthumb 11.5607 -64.1
lclavicle -7.4743e-014 5.56597e-014
lhumerus -5.82213 -23.8884 69.5464
lradius 20.6096
lwrist -6.39603
lhand -9.02604 -5.80027
lfingers 7.12502
lthumb 16.9214 23.4826
rfemur -5.06965 -0.724736 14.351
rtibia -1.31877
rfoot 2.9119 -29.8456
rtoes 41.7666
lfemur -11.3003 -0.962719 -24.1886
ltibia 4.54147
lfoot 9.68996 10.5645
ltoes 10.1538
557
root 13.4085 10.2727 6.09027 51.9983 11.9344 -192.196
lowerback 2.10463 2.60002 -2.61274
upperback 5.41018 3.9134 -3.2586
thorax 4.47649 2.06784 -1.82622
lowerneck -0.718965 -0.44965 -4.81314
upperneck 18.1997 -1.8743 14.0263
head 5.69877 0.174837 5.25262
rclavicle 5.08889e-014 -1.16488e-013
rhumerus -47.6665 0.241933 -74.672
rradius 13.0909
rwrist 35.3661
rhand -15.0549 -34.7161
rfingers 7.12502
rthumb 11.1118 -64.4019
lclavicle 5.08889e-014 -1.16488e-013
lhumerus -6.90754 -25.332 69.5716
lradius 20.4762
lwrist -5.89945
lhand -7.87769 -4.6178
lfingers 7.12502
lthumb 18.0265 24.5668
rfemur -4.84077 -1.33513 15.0181
rtibia -1.2887
rfoot 3.3069 -29.8212
rtoes 41.4293
lfemur -11.1967 -1.37214 -23.255
ltibia 4.42627
lfoot 8.67017 11.0629
ltoes 10.0946
